<svg version="1" xmlns="http://www.w3.org/2000/svg" width="933.333" height="933.333" viewBox="0 0 700.000000 700.000000"><path d="M412.5 64.1c-66.1 2.4-127.2 17.2-167.1 40.5-22 12.8-38.1 30.1-42.9 46.1-2.1 6.9-1.9 18.8.5 26.5 5.1 16.5 21.4 33.1 46.6 47.2 9.1 5.2 9.6 5.6 6.4 5.6-10 0-47.3 2.2-59.4 3.5-65.6 7.1-119.8 23.6-155.4 47.2-11.4 7.6-27.7 23.9-31.9 31.8-10.5 20.3-7.9 39.7 8 58.4 23.6 27.7 75.1 50.6 140 62.4l12.9 2.3-5.7 4.4c-9.3 7.1-19.1 18.4-23 26.3-18.3 37.6 15.4 74.7 90.4 99.6 70.3 23.3 171.9 30.2 259.6 17.5 92-13.3 158.8-46.3 170.5-84.3 10.8-34.9-23.1-68.9-91.5-91.6-23.1-7.7-57.1-15.6-78-18-3.3-.4-6.5-1-7.2-1.4-.8-.4 1-2.5 4.8-5.6 11.7-9.7 20.1-21 23.9-32.5 1.8-5.4 2.1-8.2 1.8-16.1-.3-9-.7-10.3-4.5-18-8.8-17.8-25.9-32.8-53-46.5l-12.2-6.1 13.2-.7c105.1-5.5 187.5-39 204.8-83.3 3-7.7 3.3-22.2.6-30.3-9.1-27.1-46.1-52.4-99.4-68-32-9.4-70.5-15.4-104.8-16.5-9.3-.3-19.5-.7-22.5-.8-3-.2-14.5 0-25.5.4z"/></svg>