<?xml version="1.0" standalone="no"?>
<!DOCTYPE svg PUBLIC "-//W3C//DTD SVG 20010904//EN"
 "http://www.w3.org/TR/2001/REC-SVG-20010904/DTD/svg10.dtd">
<svg version="1.0" xmlns="http://www.w3.org/2000/svg"
 width="700.000000pt" height="700.000000pt" viewBox="0 0 700.000000 700.000000"
 preserveAspectRatio="xMidYMid meet">
<metadata>
Created by potrace 1.11, written by Peter Selinger 2001-2013
</metadata>
<g transform="translate(0.000000,700.000000) scale(0.100000,-0.100000)"
fill="#000000" stroke="none">
<path d="M4125 6359 c-661 -24 -1272 -172 -1671 -405 -220 -128 -381 -301
-429 -461 -21 -69 -19 -188 5 -265 51 -165 214 -331 466 -472 91 -52 96 -56
64 -56 -100 0 -473 -22 -594 -35 -656 -71 -1198 -236 -1554 -472 -114 -76
-277 -239 -319 -318 -105 -203 -79 -397 80 -584 236 -277 751 -506 1400 -624
l129 -23 -57 -44 c-93 -71 -191 -184 -230 -263 -183 -376 154 -747 904 -996
703 -233 1719 -302 2596 -175 920 133 1588 463 1705 843 108 349 -231 689
-915 916 -231 77 -571 156 -780 180 -33 4 -65 10 -72 14 -8 4 10 25 48 56 117
97 201 210 239 325 18 54 21 82 18 161 -3 90 -7 103 -45 180 -88 178 -259 328
-530 465 l-122 61 132 7 c1051 55 1875 390 2048 833 30 77 33 222 6 303 -91
271 -461 524 -994 680 -320 94 -705 154 -1048 165 -93 3 -195 7 -225 8 -30 2
-145 0 -255 -4z"/>
</g>
</svg>
